<svg width="24" height="21" viewBox="0 0 24 21" fill="none" xmlns="http://www.w3.org/2000/svg">
<path d="M18.6667 11.7964C18.5207 13.3759 17.9279 14.8811 16.9577 16.136C15.9875 17.3908 14.68 18.3434 13.1881 18.8823C11.6962 19.4212 10.0818 19.524 8.5336 19.1788C6.98542 18.8336 5.56758 18.0546 4.44597 16.933C3.32436 15.8114 2.54537 14.3936 2.20017 12.8454C1.85496 11.2972 1.95781 9.68272 2.49668 8.19086C3.03555 6.699 3.98815 5.39146 5.24302 4.42124C6.49789 3.45102 8.00312 2.85824 9.58258 2.71228C8.65786 3.96333 8.21287 5.50474 8.32856 7.05615C8.44426 8.60756 9.11294 10.0659 10.213 11.166C11.3131 12.266 12.7714 12.9347 14.3228 13.0504C15.8742 13.1661 17.4156 12.7211 18.6667 11.7964Z" stroke="#ABA5DC" stroke-width="2.5" stroke-linecap="round" stroke-linejoin="round"/>
<path d="M19.2167 2.85155C18.8917 3.83671 18.8476 4.61315 18.2143 5.21427C17.606 5.78199 16.7417 5.94062 15.7917 6.24952L15.6215 6.30516C15.4292 6.36803 15.4316 6.64094 15.625 6.70036V6.70036C16.6809 7.01497 17.8038 7.3114 18.375 7.94642C18.9462 8.58144 19.0269 9.49094 19.2917 10.3738V10.3738C19.3511 10.5679 19.6247 10.5707 19.6881 10.378L19.75 10.1902C20.075 9.2217 20.2274 8.54753 20.7857 7.94642C21.394 7.29521 22.2 7.06771 23.1667 6.76715L23.2901 6.72881C23.5085 6.66098 23.5096 6.35226 23.2917 6.28292V6.28292C22.3682 5.99455 21.3564 5.7593 20.7857 5.21427C20.1667 4.62315 20.0162 3.69598 19.7083 2.70127V2.70127C19.6387 2.48429 19.3313 2.48537 19.2632 2.70283L19.2167 2.85155Z" fill="#ABA5DC"/>
<path d="M13.8111 0.567823C13.5945 1.2246 13.5651 1.74222 13.1429 2.14297C12.7373 2.52145 12.1611 2.6272 11.5278 2.83314L11.4143 2.87023C11.2861 2.91214 11.2877 3.09408 11.4167 3.13369V3.13369C12.1206 3.34343 12.8692 3.54106 13.25 3.9644C13.6308 4.38775 13.6846 4.99408 13.8611 5.58268V5.58268C13.9007 5.71203 14.0831 5.71395 14.1254 5.58546L14.1667 5.46023C14.3833 4.81459 14.4849 4.36514 14.8572 3.9644C15.2627 3.53026 15.8 3.37859 16.4445 3.17822L16.5268 3.15266C16.6723 3.10744 16.6731 2.90163 16.5278 2.8554V2.8554C15.9122 2.66315 15.2376 2.50632 14.8572 2.14297C14.4445 1.74889 14.3441 1.13078 14.1389 0.467638V0.467638C14.0925 0.322983 13.8876 0.323699 13.8422 0.468674L13.8111 0.567823Z" fill="#ABA5DC"/>
</svg>
