<svg width="72" height="66" viewBox="0 0 72 66" fill="none" xmlns="http://www.w3.org/2000/svg">
<g clip-path="url(#clip0_2033_281)">
<path d="M69 35.7027C68.4745 41.3888 66.3406 46.8076 62.8478 51.3251C59.355 55.8427 54.6479 59.272 49.2772 61.212C43.9065 63.1519 38.0944 63.5221 32.521 62.2794C26.9475 61.0367 21.8433 58.2323 17.8055 54.1945C13.7677 50.1567 10.9633 45.0525 9.72061 39.479C8.47786 33.9056 8.84812 28.0935 10.788 22.7228C12.728 17.3521 16.1573 12.645 20.6749 9.15223C25.1924 5.65944 30.6112 3.52547 36.2973 3C32.9683 7.50377 31.3663 13.0528 31.7828 18.6379C32.1993 24.2229 34.6066 29.473 38.5668 33.4332C42.527 37.3934 47.7771 39.8007 53.3621 40.2172C58.9472 40.6337 64.4962 39.0317 69 35.7027Z" fill="#F9A825" stroke="#F9A825" stroke-width="6" stroke-linecap="round" stroke-linejoin="round"/>
<path d="M21.1946 19.125H19.6983C19.2541 17.4043 18.336 15.8427 17.0486 14.6177C15.7612 13.3927 14.1559 12.5534 12.4153 12.1951C10.6747 11.8368 8.86845 11.9739 7.20186 12.5909C5.53528 13.2079 4.07516 14.2799 2.98743 15.6853C1.89969 17.0906 1.22795 18.7729 1.04854 20.5409C0.869132 22.309 1.18924 24.0919 1.9725 25.6871C2.75575 27.2823 3.97075 28.6258 5.47943 29.565C6.98811 30.5042 8.72997 31.0013 10.5071 31H21.1946C22.7693 31 24.2795 30.3744 25.393 29.2609C26.5065 28.1474 27.1321 26.6372 27.1321 25.0625C27.1321 23.4878 26.5065 21.9775 25.393 20.8641C24.2795 19.7506 22.7693 19.125 21.1946 19.125Z" fill="#D8D8D8" stroke="#D8D8D8" stroke-width="2" stroke-linecap="round" stroke-linejoin="round"/>
<path d="M47.2099 35.1076C46.0352 35.2769 45.8658 35.3192 44.6593 35.7108C43.5163 36.0812 42.2146 36.7374 41.1774 37.4571C40.1508 38.1662 38.4046 39.9337 37.7907 40.8968L37.2722 41.701L36.362 41.7645C34.1395 41.9338 31.8746 42.9287 30.1919 44.4738C27.546 46.9292 26.3925 50.898 27.3132 54.4434C28.2657 58.0946 31.3349 60.9946 35.1026 61.8095C35.9386 61.9894 36.8594 61.9999 49.8558 61.9999H63.72L64.5561 61.7671C67.7205 60.8569 69.9853 58.518 70.6944 55.4065C70.9061 54.4751 70.9167 52.7183 70.705 51.7658C70.3663 50.1571 69.689 48.9294 68.4296 47.6489C66.9373 46.1354 65.1699 45.3099 63.085 45.1512L62.0584 45.0666L61.7091 44.1034C60.2804 40.0712 57.2112 37.0443 53.2213 35.7002C51.3269 35.0758 49.0197 34.843 47.2099 35.1076Z" fill="#D8D8D8"/>
</g>
<defs>
<clipPath id="clip0_2033_281">
<rect width="72" height="66" fill="white"/>
</clipPath>
</defs>
</svg>
